<svg width="82" height="82" viewBox="0 0 82 82" fill="none" xmlns="http://www.w3.org/2000/svg">
<path d="M38.2975 13.038C38.1308 12.1473 37.617 11.3592 36.8693 10.8473C36.1215 10.3353 35.201 10.1414 34.3102 10.3081C33.4195 10.4748 32.6315 10.9886 32.1195 11.7363C31.6075 12.4841 31.4136 13.4046 31.5803 14.2954L32.6907 20.2404C29.1815 22.0458 26.3522 24.9403 24.6274 28.4899C22.9025 32.0394 22.375 36.0525 23.1241 39.9272L24.0671 44.9599L24.255 45.9713C25.1365 50.6658 23.476 53.6998 22.1025 56.2144C21.1287 57.9911 20.3019 59.5081 20.6094 61.1652C20.9852 63.1674 21.3611 65.1729 23.1719 64.8347L66.5636 56.7133C68.3676 56.3716 67.9918 54.3729 67.6159 52.3741C67.264 50.4471 65.4429 48.5372 63.533 46.5282C61.4625 44.3552 59.2861 42.066 58.736 39.5206C57.9399 35.8135 57.7964 34.7817 57.7007 34.0984C57.67 33.8831 57.6461 33.6986 57.6051 33.4765C56.8348 29.2115 54.5714 25.36 51.2202 22.6117C47.869 19.8634 43.6489 18.3978 39.3157 18.4774L38.2975 13.038Z" fill="#B98D2B"/>
<path fill-rule="evenodd" clip-rule="evenodd" d="M22.3417 14.6165C23.0128 15.2247 23.4151 16.0745 23.4599 16.9792C23.5048 17.8838 23.1886 18.7692 22.5808 19.4408C18.7712 23.6433 16.7554 28.3413 16.3283 33.9958C16.2604 34.8997 15.8361 35.7396 15.1489 36.3307C14.4617 36.9218 13.5678 37.2157 12.6639 37.1477C11.7601 37.0798 10.9202 36.6555 10.3291 35.9683C9.738 35.2811 9.44411 34.3872 9.51207 33.4833C10.0587 26.3118 12.6862 20.1823 17.5139 14.8523C17.8153 14.5196 18.1794 14.2497 18.5852 14.0578C18.991 13.866 19.4306 13.7559 19.8789 13.734C20.3273 13.7122 20.7755 13.7788 21.1981 13.9302C21.6207 14.0817 22.0092 14.3148 22.3417 14.6165Z" fill="#B98D2B"/>
<path d="M30.5793 67.3083C32.971 70.0416 36.3877 71.7499 40.146 71.7499C45.6127 71.7499 50.0543 67.9916 51.421 63.2083L30.5793 67.3083Z" fill="#B98D2B"/>
</svg>
