<svg width="82" height="82" viewBox="0 0 82 82" fill="none" xmlns="http://www.w3.org/2000/svg">
<g clip-path="url(#clip0_696_905)">
<path d="M51.25 0L49.1316 4.68083L44.4166 6.83333L49.1316 8.98583L51.25 13.6667L53.4025 8.98583L58.0833 6.83333L53.4025 4.68083L51.25 0ZM35.875 6.83333L32.1508 15.0675L23.9166 18.7917L32.1508 22.5158L35.875 30.75L39.6333 22.5158L47.8333 18.7917L39.6333 15.0675L35.875 6.83333ZM64.5408 17.5617C59.9966 17.2883 54.8033 19.3042 50.7033 23.37C45.2708 28.8025 43.5625 36.1483 45.9883 41.3758L12.6416 74.7225L17.4591 79.54L41 56.0675L64.5066 79.5742L69.3241 74.7567L45.8175 51.25L50.84 46.2275C56.0675 48.6533 63.4133 46.945 68.8458 41.5125C75.3716 34.9867 76.6358 25.625 71.6133 20.6025C69.7341 18.7917 67.24 17.7325 64.5408 17.5617ZM13.3591 18.7917C10.8012 21.3595 9.36499 24.8363 9.36499 28.4608C9.36499 32.0853 10.8012 35.5621 13.3591 38.13L27.675 52.4117L37.3441 42.7083L13.3591 18.7917Z" fill="#B98D2B"/>
</g>
<defs>
<clipPath id="clip0_696_905">
<rect width="82" height="82" fill="white"/>
</clipPath>
</defs>
</svg>
