<svg width="125" height="83" viewBox="0 0 125 83" fill="none" xmlns="http://www.w3.org/2000/svg">
<g clip-path="url(#clip0_696_884)">
<path d="M72.3206 63.0385H79.5519V70.2699H72.3206V63.0385ZM97.3174 63.0385H104.549V70.2699H97.3174V63.0385ZM91.2515 37.3915V30.1636H81.2292V33.6842L84.9677 37.3949L91.2515 37.3915Z" fill="#B98D2B"/>
<path d="M116.034 76.4707V61.2229H118.334L120.471 59.1099L95.1491 33.788H92.0055V38.1766H84.6393L80.2506 33.788H68.0911L42.7969 59.0822L44.9341 61.2195H48.3199V76.4673H41.711C31.8271 67.0122 29.1987 45.5671 30.1221 29.6138L30.2846 29.2887H30.3642C34.6871 29.2887 38.5189 31.3844 40.9052 34.6145L40.9294 34.6491C42.7277 37.0803 43.8102 40.1409 43.8102 43.4506C43.8102 45.7331 43.2984 47.8945 42.3784 49.8277L42.4165 49.7378C44.3466 49.2438 46.1408 48.3219 47.6662 47.0403L47.6455 47.0576C49.2346 45.6756 50.5081 43.9682 51.3798 42.0511C52.2516 40.134 52.7011 38.052 52.6981 35.946C52.6981 32.6433 51.6122 29.5965 49.7793 27.1411L49.8069 27.1791C48.2343 24.986 46.0101 23.3446 43.4508 22.4884C40.8916 21.6322 38.1274 21.6048 35.5517 22.4101L35.6416 22.3859C36.5581 21.8152 37.6129 21.3103 38.723 20.9264L38.8336 20.8919C40.3426 20.3352 41.939 20.0529 43.5474 20.0584C47.2927 20.0584 50.6854 21.5559 53.165 23.9801L53.1615 23.9767C53.5312 22.0371 53.4208 20.0365 52.8399 18.1494L52.8641 18.2359C52.2907 16.5538 51.3808 15.006 50.19 13.6869C48.9991 12.3678 47.5522 11.3049 45.9373 10.563C44.3225 9.82111 42.5735 9.4157 40.7969 9.3715C39.0203 9.32729 37.2533 9.64521 35.6036 10.3059L35.69 10.2748C34.8552 10.5616 34.0436 10.9119 33.2623 11.3226L33.3626 11.2742C33.1259 10.193 32.777 9.13941 32.3216 8.1306L32.3631 8.23089C29.3198 1.4076 22.3409 -1.81557 16.7626 1.00298C15.257 1.77441 13.9629 2.9023 12.993 4.28839L12.9722 4.32298C14.9358 4.51457 16.8274 5.16252 18.4961 6.21512C20.1648 7.26772 21.5643 8.69582 22.5829 10.3854L22.6141 10.4408C21.3206 9.79132 19.9508 9.30682 18.5367 8.99864L18.4191 8.97789C9.84244 7.1346 1.68077 11.793 0.217894 19.4048C-0.172978 21.4929 -0.0435118 23.6451 0.594853 25.6713L0.570644 25.5814C2.48777 23.4031 4.96987 21.7974 7.74258 20.9417C10.5153 20.0861 13.4706 20.0137 16.2819 20.7328L16.1712 20.7086C17.5856 21.006 18.8376 21.4348 20.0099 21.9985L19.9096 21.9536C17.1037 21.5779 14.2494 22.0487 11.7127 23.3056C9.17604 24.5626 7.07249 26.5484 5.67169 29.0086L5.63364 29.0777C4.17122 31.5447 3.40288 34.3612 3.40994 37.229C3.40994 42.6517 6.09706 47.4449 10.2159 50.3499L10.2678 50.3845C12.0386 51.5776 14.0615 52.3447 16.1781 52.6255L16.2507 52.6324C14.7257 50.1039 13.9231 47.2057 13.9302 44.2529C13.9302 41.2338 14.7498 38.4049 16.1816 35.9806L16.1401 36.0566C17.203 34.2046 18.6611 32.6097 20.4108 31.3855C22.1604 30.1612 24.1584 29.3379 26.2626 28.974L26.3491 28.9601C21.4486 51.2768 20.0929 66.8254 24.1357 76.4638H12.3566V82.9655H123.535V76.4638H116.034V76.4707ZM88.5403 61.5757H113.323V76.4707H88.5403V61.5757ZM50.9793 58.6223L68.0981 41.5035L85.2168 58.6223V76.4707H66.4208V63.0386H56.9138V76.4707H50.9586V58.6223H50.9793Z" fill="#B98D2B"/>
</g>
<defs>
<clipPath id="clip0_696_884">
<rect width="124.5" height="83" fill="white"/>
</clipPath>
</defs>
</svg>
