<svg width="82" height="82" viewBox="0 0 82 82" fill="none" xmlns="http://www.w3.org/2000/svg">
<path d="M7.34595 64.9166L17.1723 46.0566C17.6483 45.1454 18.3112 44.4257 19.1608 43.8972C20.0127 43.3665 20.9671 43.1011 22.0239 43.1011C23.1287 43.1011 24.1423 43.3893 25.0648 43.9656C25.9896 44.5396 26.6604 45.3561 27.0772 46.4153L28.8573 50.6041C29.2787 51.5153 30.0622 51.9344 31.2079 51.8615C32.3537 51.784 33.0905 51.2932 33.4185 50.3889L40.5662 27.5826C41.2769 25.3299 42.5923 23.5419 44.5124 22.2185C46.4326 20.8974 48.5623 20.2368 50.9016 20.2368C53.1931 20.2368 55.292 20.8837 57.1985 22.1775C59.105 23.4713 60.4204 25.2092 61.1448 27.3913L74.7397 64.9166H7.34595ZM20.9579 33.8386C18.6369 33.8386 16.6438 33.0094 14.9788 31.3512C13.316 29.6907 12.4846 27.7159 12.4846 25.4267C12.4846 23.0624 13.316 21.0693 14.9788 19.4476C16.6438 17.8281 18.6369 17.0183 20.9579 17.0183C23.279 17.0183 25.2493 17.8281 26.8688 19.4476C28.4883 21.0671 29.3003 23.0578 29.3049 25.4199C29.3049 27.7341 28.4928 29.7158 26.8688 31.3649C25.2447 33.014 23.2744 33.8386 20.9579 33.8386Z" fill="#B98D2B"/>
</svg>
