<svg width="69" height="69" viewBox="0 0 69 69" fill="none" xmlns="http://www.w3.org/2000/svg">
<path d="M68.3597 21.6182C68.3136 21.1979 68.2181 20.7846 68.0753 20.3871C67.7899 19.5376 67.1652 18.8784 66.2792 18.4166C62.4429 16.4602 57.9914 17.8767 54.3903 19.8668C50.6126 22.3114 46.7708 24.5416 42.8216 26.7405C42.5378 26.4144 42.2381 26.1027 41.9236 25.8067C43.0116 23.9695 44.068 22.0427 45.1547 20.2336L45.1594 19.9277C45.4609 19.6892 45.4788 19.4591 45.7794 19.2215C46.6949 17.7286 47.5705 16.207 48.4877 14.663L48.4909 14.4591C49.4091 12.7987 50.0789 11.0545 50.7028 9.17701L50.7681 4.98702C50.4744 4.73421 50.4736 4.40266 50.4774 4.16469L50.4805 3.96071C50.1875 3.6637 50.1847 3.40523 50.1889 3.13751C49.8938 2.97054 49.8908 2.78177 49.8933 2.62199C49.6007 2.24338 49.2894 1.86873 48.9961 1.58532C48.9964 1.56578 48.9891 1.60222 48.6926 1.58059C48.3989 1.32438 48.0847 1.084 47.789 0.953572C47.4937 0.801047 46.9754 0.667149 46.6783 0.62936C46.0842 0.597142 45.7585 0.657521 45.46 0.712372C45.4597 0.72937 45.1568 0.68469 45.1564 0.707637C45.1555 0.76713 44.8499 0.838873 44.8489 0.906865C44.5497 1.00081 44.2308 1.06129 43.9318 1.19945C43.6335 1.2373 43.6265 1.25249 43.6258 1.29669C43.3262 1.41613 43.309 1.65729 43.009 1.79883C42.7102 1.92508 42.7958 2.05904 42.4968 2.19889C42.193 2.53419 41.8647 2.81896 41.2633 3.20232C40.9595 3.58948 40.6339 4.08341 40.3302 4.51733C40.3287 4.61932 40.0235 4.71827 40.0219 4.81856C37.8891 8.00123 37.263 11.7022 36.6099 15.3976C36.6057 15.6704 36.2979 15.9385 36.2936 16.2104C35.9727 17.6982 35.6303 19.2673 35.3112 20.6939C35.099 21.2108 34.9345 21.6996 34.7805 22.2192C34.2405 22.1766 33.6984 22.1682 33.1574 22.1939C31.8748 18.0202 30.6991 13.8024 29.8046 9.56684C28.6768 5.63368 26.3943 1.48698 22.5474 0.150127C21.6584 -0.0575628 20.5094 -0.0899362 19.9085 0.312992C16.6149 1.67874 16.4912 5.66379 17.0407 8.54911C18.1448 14.0622 22.2245 18.2616 24.8253 23.1886C25.0317 23.6373 25.2948 24.0732 25.5146 24.528C25.0838 24.8367 24.6722 25.1715 24.2819 25.5306C24.1967 25.4809 24.0635 25.4754 23.98 25.4248C22.7986 24.8147 21.8424 24.1588 20.6613 23.5325C18.8952 22.3446 16.9056 21.1625 15.1371 20.0732C15.138 20.0205 14.836 19.9155 14.8368 19.8645C14.8375 19.8211 14.5342 19.7985 14.5348 19.7577C13.0602 18.8676 11.2729 18.1189 9.49428 17.7366C9.19691 17.715 9.19049 17.748 9.19074 17.7319C8.58676 17.6291 7.97881 17.5516 7.36845 17.4995C6.77317 17.4902 6.5431 17.5333 5.94697 17.5784C5.64888 17.6027 5.33065 17.6207 5.03307 17.6662C5.03229 17.7163 4.72065 17.6902 4.42272 17.7578C4.42237 17.7808 4.11801 17.8279 4.11759 17.8551C3.81837 17.9516 3.49794 18.1107 3.19807 18.2488C3.19694 18.321 2.89266 18.3639 2.89134 18.448C2.29235 18.6767 2.06463 19.0022 1.76148 19.3511C1.75644 19.674 1.43853 20.0499 1.13516 20.466C1.12929 20.8425 1.12254 21.276 0.812499 21.6877C0.806454 22.0752 0.800781 22.439 1.0985 22.8168C1.09699 22.9137 0.797544 23.0246 1.09373 23.1228C1.0864 23.5928 1.38395 24.0361 1.37738 24.4568C1.67384 24.537 1.67891 24.5907 1.67774 24.6655C1.67435 24.883 1.97576 25.079 1.97256 25.2838C2.26425 25.6701 2.4747 26.0738 2.76615 26.4209C3.06095 26.6074 3.07281 26.7666 3.36696 26.9412C3.65798 27.3699 4.28043 27.746 4.8705 28.0893C4.86961 28.1463 4.86818 28.2381 5.17087 28.298C8.7047 30.6178 12.8196 31.2618 16.6734 32.1584C17.9407 32.4451 19.0049 32.7244 20.2104 33.0314C20.0731 33.7379 19.994 34.4546 19.9737 35.1742C19.8619 35.2056 19.7786 35.2434 19.6677 35.2714C14.5825 37.0334 8.88047 37.1383 4.07204 40.2418C1.66609 41.9045 -1.03643 44.7927 0.401965 47.9545C0.686415 48.8048 1.30285 49.5668 1.89117 50.0223C5.72836 51.9804 10.4834 50.566 14.0845 48.5769C16.7958 46.6962 19.725 44.9006 22.6883 43.1905C23.3254 44.0389 24.0628 44.8058 24.8843 45.4741C24.4122 46.3772 23.9991 47.2336 23.3217 48.1071C23.3162 48.4616 22.9977 48.8731 22.6954 49.2221C21.7811 50.6326 20.8132 52.0202 20.1951 53.4769C20.1938 53.5602 19.888 53.6974 19.8868 53.7782L19.8836 53.983C19.2748 54.8372 19.0385 55.7168 18.7258 56.6232C18.4157 57.4702 18.0839 58.3593 17.772 59.2666L17.7672 59.5726C17.7575 60.1964 17.4431 60.8894 17.4334 61.5098C17.4231 62.1694 17.7166 62.8183 17.7066 63.4566L17.7003 63.8654C17.995 64.0587 17.9971 64.301 17.9942 64.4837C17.9914 64.669 17.9892 64.8084 18.2907 64.9993L18.2859 65.3052C18.5809 65.4756 18.5848 65.6593 18.5823 65.8216C18.581 65.9032 18.8839 65.953 18.8827 66.0303C18.8783 66.3091 19.187 66.523 19.4803 66.7554L19.4787 66.8574C19.7726 67.1017 20.2896 67.3181 20.5846 67.4876C20.8795 67.6699 21.4996 67.7646 21.7965 67.8134C22.0937 67.8512 22.4194 67.7874 23.0148 67.7304C23.0151 67.7142 23.0144 67.7567 23.3184 67.7351C23.3193 67.6765 23.6249 67.6039 23.6259 67.5359C23.9254 67.4216 24.1443 67.2847 24.4434 67.1397C24.4441 67.1006 24.7488 67.0841 24.7494 67.0425C24.7503 66.9839 25.0536 67.0064 25.0546 66.9452C25.3553 66.7527 25.6775 66.4772 25.9788 66.2456L25.9804 66.1436C25.9826 66.0025 26.2881 65.8857 26.2904 65.7395C26.5909 65.6141 26.6051 65.5693 26.9039 65.4431C26.9051 65.3666 26.9059 65.313 27.2106 65.243C27.5168 64.7555 27.8497 64.1776 28.4537 63.6259C28.7635 62.8486 29.2967 62.0256 29.6075 61.1905C29.919 60.3019 30.2514 59.3788 30.5628 58.4451L30.5724 57.8324C31.192 56.2285 31.5406 54.6919 31.864 53.0477C31.8703 52.6457 32.1804 52.228 32.1867 51.826C32.4484 50.6649 32.7372 49.5101 33.0529 48.3626C33.944 48.3322 34.8296 48.2093 35.6958 47.9958C36.7396 51.5851 37.8017 55.1355 38.5698 58.7749C39.6984 62.7089 42.0805 66.9575 45.9273 68.2952C46.8164 68.5012 47.6694 68.4252 48.5679 68.0303C51.5647 66.6574 51.8824 62.7782 51.332 59.8946C50.2288 54.3806 46.1483 50.1812 43.5482 45.256C43.3215 44.7619 43.1066 44.2111 42.8622 43.7117C43.1578 43.3562 43.4344 42.9851 43.6909 42.5999C43.9652 42.747 44.2533 42.8756 44.4956 43.0205C45.6741 43.708 46.8337 44.4129 48.0126 45.1207C49.7798 46.2364 51.568 47.3593 53.3376 48.373C53.6338 48.4677 53.6453 48.598 53.9408 48.6884C54.8267 49.1494 55.367 49.605 56.2538 49.9521C57.1418 50.2804 58.0919 50.5222 58.9805 50.7104C59.2778 50.7312 59.2851 50.6956 59.2848 50.7151C59.8779 50.8111 60.4108 50.9308 61.0051 50.946C61.3027 50.9506 61.622 50.8689 61.9198 50.8582C62.2178 50.8408 62.8391 50.8573 63.1381 50.7761C63.4365 50.7331 63.7541 50.7534 64.052 50.6883C64.0524 50.6628 63.9588 50.612 64.256 50.5903C64.5559 50.5006 64.8758 50.3203 65.1755 50.1966C65.1766 50.1235 65.4809 50.0815 65.4822 49.9965C65.483 49.9455 65.7889 49.8568 65.7898 49.7973C66.0907 49.5912 66.4054 49.3666 66.4097 49.0903L66.4113 48.9892C66.7137 48.6879 67.0367 48.3665 67.3396 47.981C67.3459 47.5765 67.36 47.1023 67.6638 46.6573C67.6694 46.3004 67.3709 45.9752 67.3762 45.6302L67.389 44.8126C67.0958 44.5207 67.0863 44.2664 66.7938 43.9855L66.7986 43.6795C66.8019 43.4637 66.4914 43.367 66.1978 43.1584C66.2006 42.9757 66.1979 42.7164 65.9038 42.5409C65.6086 42.3773 65.5974 42.1782 65.303 42.0206C65.3059 41.8345 65.3016 41.6806 65.0074 41.5043C64.4183 41.1023 64.1944 40.6976 63.6051 40.3577C63.6059 40.3067 63.3031 40.2 63.3039 40.149C62.7172 39.6417 61.7762 39.2521 60.8896 38.8846C60.0034 38.4925 59.1553 38.2013 58.2674 37.9231C58.2677 37.9001 57.9651 37.8384 57.9654 37.8163C57.9657 37.7976 57.6607 37.832 57.661 37.8116C55.5866 37.2556 53.4786 36.7356 51.701 36.2879C51.4039 36.2476 51.4913 36.2175 51.195 36.178C50.0101 35.9053 48.7432 35.5889 47.5584 35.2023C47.0718 35.0383 46.5101 34.9326 45.9434 34.7674C45.9561 34.495 45.9603 34.2224 45.9561 33.9498C46.8358 33.677 47.7141 33.3354 48.5051 33.0697C53.888 31.309 59.5951 31.3079 64.4027 28.206C66.5085 26.7512 68.6271 24.3172 68.3596 21.6225L68.3597 21.6182Z" fill="#B98D2B"/>
</svg>
