<svg width="158" height="109" viewBox="0 0 158 109" fill="none" xmlns="http://www.w3.org/2000/svg">
<path d="M50.8594 47.543C50.8411 47.5794 50.7318 47.7344 50.5312 48.0078C50.3307 48.2812 50.0391 48.6185 49.6562 49.0195C49.2917 49.4023 48.8268 49.8216 48.2617 50.2773C47.7148 50.7148 47.0586 51.125 46.293 51.5078C45.5456 51.8724 44.6979 52.1823 43.75 52.4375C42.8021 52.6927 41.7539 52.8203 40.6055 52.8203C38.819 52.8203 37.1419 52.5924 35.5742 52.1367C34.0065 51.6992 32.4935 51.1341 31.0352 50.4414C29.5951 49.7487 28.1732 48.9831 26.7695 48.1445C25.3659 47.306 23.9349 46.4857 22.4766 45.6836C21.5833 47.1784 20.5534 48.3997 19.3867 49.3477C18.2383 50.2773 17.0352 51.0065 15.7773 51.5352C14.5378 52.0638 13.2982 52.4193 12.0586 52.6016C10.8372 52.8021 9.70703 52.9023 8.66797 52.9023C7.66536 52.9023 6.64453 52.793 5.60547 52.5742C4.58464 52.3737 3.65495 52.0365 2.81641 51.5625C1.99609 51.0703 1.32161 50.4323 0.792969 49.6484C0.264323 48.8646 0 47.8893 0 46.7227C0 45.6289 0.255208 44.6445 0.765625 43.7695C1.25781 42.8763 1.94141 42.1198 2.81641 41.5C3.70964 40.8802 4.75781 40.4062 5.96094 40.0781C7.16406 39.7318 8.45833 39.5586 9.84375 39.5586C10.8828 39.5586 11.9128 39.6497 12.9336 39.832C13.9727 40.0143 14.9844 40.2604 15.9688 40.5703C16.9531 40.8802 17.9102 41.2357 18.8398 41.6367C19.7695 42.0195 20.6445 42.4115 21.4648 42.8125C21.5742 42.4844 21.6654 42.1562 21.7383 41.8281C21.8294 41.5 21.9023 41.1445 21.957 40.7617C22.0299 40.3607 22.0755 39.9232 22.0938 39.4492C22.1302 38.957 22.1484 38.3919 22.1484 37.7539C22.1484 37.1523 22.1302 36.5781 22.0938 36.0312C22.0755 35.4844 22.0482 34.8919 22.0117 34.2539C21.9935 33.5977 21.9661 32.8685 21.9297 32.0664C21.9115 31.2461 21.9023 30.2708 21.9023 29.1406C21.9023 26.5339 22.1576 24.1641 22.668 22.0312C23.1784 19.8802 23.9349 18.0391 24.9375 16.5078C25.9401 14.9766 27.1888 13.7917 28.6836 12.9531C30.1784 12.0964 31.9193 11.668 33.9062 11.668C35.1094 11.668 36.2487 11.8594 37.3242 12.2422C38.418 12.625 39.375 13.1719 40.1953 13.8828C41.0339 14.5938 41.6901 15.4414 42.1641 16.4258C42.6562 17.4102 42.9023 18.5039 42.9023 19.707C42.9023 20.3633 42.8112 21.0469 42.6289 21.7578C42.4466 22.4688 42.1914 23.125 41.8633 23.7266C41.5534 24.3099 41.1888 24.793 40.7695 25.1758C40.3685 25.5586 39.9401 25.75 39.4844 25.75C39.2292 25.75 39.0013 25.6771 38.8008 25.5312C38.6003 25.3854 38.5 25.1576 38.5 24.8477C38.5 24.6289 38.5456 24.4466 38.6367 24.3008C38.7461 24.1367 38.8737 23.9909 39.0195 23.8633C39.5482 23.3893 39.9766 22.806 40.3047 22.1133C40.651 21.4206 40.8242 20.6185 40.8242 19.707C40.8242 18.7956 40.6328 17.9753 40.25 17.2461C39.8854 16.4987 39.3841 15.8698 38.7461 15.3594C38.1263 14.8307 37.3971 14.4297 36.5586 14.1562C35.7383 13.8646 34.8724 13.7188 33.9609 13.7188C32.2474 13.7188 30.7617 14.0924 29.5039 14.8398C28.2461 15.5872 27.207 16.6445 26.3867 18.0117C25.5664 19.3607 24.9557 21.0013 24.5547 22.9336C24.1719 24.8477 23.9805 26.9805 23.9805 29.332C23.9805 30.4622 23.9896 31.4557 24.0078 32.3125C24.0443 33.1693 24.0716 33.9531 24.0898 34.6641C24.1263 35.375 24.1536 36.0495 24.1719 36.6875C24.2083 37.3073 24.2266 37.9453 24.2266 38.6016C24.2266 38.9844 24.2083 39.4036 24.1719 39.8594C24.1354 40.2969 24.0807 40.7526 24.0078 41.2266C23.9349 41.6823 23.8346 42.138 23.707 42.5938C23.5977 43.0312 23.4701 43.4323 23.3242 43.7969C24.7096 44.526 26.0768 45.3008 27.4258 46.1211C28.7747 46.9414 30.1419 47.6979 31.5273 48.3906C32.931 49.0651 34.3711 49.6302 35.8477 50.0859C37.3424 50.5234 38.9193 50.7422 40.5781 50.7422C42.0365 50.7422 43.2943 50.5234 44.3516 50.0859C45.4271 49.6484 46.3112 49.1654 47.0039 48.6367C47.7148 48.0898 48.2435 47.5977 48.5898 47.1602C48.9362 46.7044 49.1094 46.4674 49.1094 46.4492C49.3099 46.1211 49.6016 45.957 49.9844 45.957C50.2943 45.957 50.5404 46.0664 50.7227 46.2852C50.9232 46.5039 51.0234 46.7409 51.0234 46.9961C51.0234 47.1966 50.9688 47.3789 50.8594 47.543ZM20.6719 44.6719C19.888 44.2891 19.0586 43.9154 18.1836 43.5508C17.3268 43.168 16.4427 42.8307 15.5312 42.5391C14.6198 42.2474 13.681 42.0195 12.7148 41.8555C11.7669 41.6732 10.819 41.582 9.87109 41.582C8.79557 41.582 7.78385 41.7005 6.83594 41.9375C5.88802 42.1562 5.05859 42.4844 4.34766 42.9219C3.63672 43.3594 3.07161 43.888 2.65234 44.5078C2.2513 45.1276 2.05078 45.8294 2.05078 46.6133C2.05078 47.3424 2.23307 47.9805 2.59766 48.5273C2.96224 49.056 3.44531 49.5026 4.04688 49.8672C4.66667 50.2135 5.3776 50.4779 6.17969 50.6602C6.98177 50.8242 7.82031 50.9062 8.69531 50.9062C9.7526 50.9062 10.8464 50.8242 11.9766 50.6602C13.1068 50.4779 14.2005 50.1589 15.2578 49.7031C16.3151 49.2292 17.3086 48.5911 18.2383 47.7891C19.168 46.9688 19.9792 45.9297 20.6719 44.6719ZM62.2344 48.9375C61.5964 49.9766 60.849 50.7969 59.9922 51.3984C59.1536 52 58.306 52.3008 57.4492 52.3008C56.7565 52.3008 56.1367 52.1732 55.5898 51.918C55.043 51.6628 54.569 51.3073 54.168 50.8516C53.7669 50.3776 53.457 49.8125 53.2383 49.1562C53.0378 48.5 52.9375 47.7617 52.9375 46.9414C52.9375 45.6654 53.056 44.5352 53.293 43.5508C53.5482 42.5664 53.8216 41.7461 54.1133 41.0898C54.4049 40.4154 54.6784 39.9049 54.9336 39.5586C55.1888 39.2122 55.3164 39.0391 55.3164 39.0391C55.4076 38.9297 55.5169 38.8477 55.6445 38.793C55.7904 38.7383 55.9362 38.7109 56.082 38.7109C56.3737 38.7109 56.6107 38.8203 56.793 39.0391C56.9935 39.2396 57.0938 39.4766 57.0938 39.75C57.0938 39.8594 57.0664 39.9688 57.0117 40.0781C56.9753 40.1875 56.9297 40.2969 56.875 40.4062C56.7839 40.5703 56.638 40.8255 56.4375 41.1719C56.237 41.5 56.0273 41.9375 55.8086 42.4844C55.5898 43.0312 55.3984 43.6784 55.2344 44.4258C55.0703 45.1549 54.9883 45.9935 54.9883 46.9414C54.9883 48.0169 55.1979 48.8372 55.6172 49.4023C56.0547 49.9492 56.6654 50.2227 57.4492 50.2227C57.7773 50.2227 58.151 50.1224 58.5703 49.9219C59.0078 49.7031 59.4271 49.375 59.8281 48.9375C60.2474 48.5 60.612 47.944 60.9219 47.2695C61.2318 46.5951 61.4323 45.8021 61.5234 44.8906L61.9336 40.1875C61.9701 39.9141 62.0885 39.6862 62.2891 39.5039C62.4896 39.3216 62.7266 39.2305 63 39.2305C63.3099 39.2305 63.556 39.349 63.7383 39.5859C63.9206 39.8047 64.0117 40.0599 64.0117 40.3516L63.6562 44.8906C63.6198 45.2734 63.6289 45.7747 63.6836 46.3945C63.7565 47.0143 63.8932 47.625 64.0938 48.2266C64.2943 48.8281 64.5951 49.3477 64.9961 49.7852C65.3971 50.2044 65.9258 50.4141 66.582 50.4141C67.056 50.4141 67.5208 50.2956 67.9766 50.0586C68.4323 49.8034 68.8698 49.4753 69.2891 49.0742C69.7083 48.6732 70.0911 48.2266 70.4375 47.7344C70.8021 47.224 71.1302 46.7135 71.4219 46.2031C71.7318 45.6927 71.9961 45.2096 72.2148 44.7539C72.4336 44.2799 72.6159 43.8789 72.7617 43.5508C72.8529 43.3503 72.9805 43.1953 73.1445 43.0859C73.3086 42.9766 73.4909 42.9219 73.6914 42.9219C74.0195 42.9219 74.2747 43.0312 74.457 43.25C74.6393 43.4688 74.7305 43.7057 74.7305 43.9609C74.7305 44.1068 74.7031 44.2435 74.6484 44.3711C74.5755 44.5169 74.4297 44.8268 74.2109 45.3008C74.0104 45.7565 73.737 46.2852 73.3906 46.8867C73.0625 47.4701 72.6615 48.0898 72.1875 48.7461C71.7135 49.4023 71.1849 50.013 70.6016 50.5781C70.0182 51.125 69.3802 51.5807 68.6875 51.9453C68.013 52.2917 67.2839 52.4648 66.5 52.4648C65.4245 52.4648 64.5312 52.1641 63.8203 51.5625C63.1094 50.9427 62.5807 50.0677 62.2344 48.9375ZM89.0859 36.5234C86.2786 39.987 83.7174 43.6328 81.4023 47.4609C82.0404 48.4089 82.7422 49.1927 83.5078 49.8125C84.2734 50.4323 85.1393 50.7422 86.1055 50.7422C86.9622 50.7422 87.7734 50.4961 88.5391 50.0039C89.3047 49.5117 89.9974 48.9102 90.6172 48.1992C91.2552 47.4701 91.8021 46.6953 92.2578 45.875C92.7318 45.0365 93.0964 44.2799 93.3516 43.6055C93.5339 43.1497 93.8529 42.9219 94.3086 42.9219C94.6185 42.9219 94.8646 43.0312 95.0469 43.25C95.2474 43.4505 95.3477 43.6875 95.3477 43.9609C95.3477 44.0521 95.3294 44.1706 95.293 44.3164C95.3112 44.2799 95.2292 44.4622 95.0469 44.8633C94.8646 45.2643 94.5911 45.7839 94.2266 46.4219C93.862 47.0417 93.4154 47.7253 92.8867 48.4727C92.3581 49.2201 91.7474 49.9219 91.0547 50.5781C90.3802 51.2161 89.6237 51.7448 88.7852 52.1641C87.9466 52.6016 87.0443 52.8203 86.0781 52.8203C84.875 52.8203 83.7904 52.5013 82.8242 51.8633C81.8763 51.2253 81.0195 50.4141 80.2539 49.4297C79.944 49.9766 79.6432 50.5234 79.3516 51.0703C79.0599 51.6172 78.7682 52.1641 78.4766 52.7109C78.276 53.0938 77.9661 53.2852 77.5469 53.2852C77.237 53.2852 76.9818 53.1758 76.7812 52.957C76.599 52.7383 76.5078 52.5013 76.5078 52.2461C76.5078 52.1003 76.5534 51.9362 76.6445 51.7539C77.0091 51.043 77.3828 50.332 77.7656 49.6211C78.1484 48.9102 78.5495 48.2083 78.9688 47.5156C78.349 46.4401 77.8203 45.3464 77.3828 44.2344C76.9453 43.1042 76.599 42.0469 76.3438 41.0625L74.7305 44.3984C74.5299 44.7995 74.2201 45 73.8008 45C73.4909 45 73.2357 44.8906 73.0352 44.6719C72.8529 44.4531 72.7617 44.2161 72.7617 43.9609C72.7617 43.7969 72.7982 43.651 72.8711 43.5234L75.8516 37.2891C75.9427 37.125 76.0703 36.9883 76.2344 36.8789C76.3984 36.7695 76.5807 36.7148 76.7812 36.7148C77.0729 36.7148 77.3099 36.8151 77.4922 37.0156C77.6745 37.1979 77.7839 37.4258 77.8203 37.6992C77.8385 37.9544 77.9023 38.3555 78.0117 38.9023C78.1393 39.4492 78.3034 40.0781 78.5039 40.7891C78.7227 41.4818 78.9688 42.2292 79.2422 43.0312C79.5339 43.8333 79.8711 44.6263 80.2539 45.4102C82.4414 41.8555 84.8568 38.4557 87.5 35.2109C87.6823 34.974 87.9466 34.8555 88.293 34.8555C88.5846 34.8555 88.8307 34.9557 89.0312 35.1562C89.2318 35.3568 89.332 35.5938 89.332 35.8672C89.332 36.1224 89.25 36.3411 89.0859 36.5234ZM102.484 48.9375C101.846 49.9766 101.099 50.7969 100.242 51.3984C99.4036 52 98.556 52.3008 97.6992 52.3008C97.0065 52.3008 96.3867 52.1732 95.8398 51.918C95.293 51.6628 94.819 51.3073 94.418 50.8516C94.0169 50.3776 93.707 49.8125 93.4883 49.1562C93.2878 48.5 93.1875 47.7617 93.1875 46.9414C93.1875 45.6654 93.306 44.5352 93.543 43.5508C93.7982 42.5664 94.0716 41.7461 94.3633 41.0898C94.6549 40.4154 94.9284 39.9049 95.1836 39.5586C95.4388 39.2122 95.5664 39.0391 95.5664 39.0391C95.6576 38.9297 95.7669 38.8477 95.8945 38.793C96.0404 38.7383 96.1862 38.7109 96.332 38.7109C96.6237 38.7109 96.8607 38.8203 97.043 39.0391C97.2435 39.2396 97.3438 39.4766 97.3438 39.75C97.3438 39.8594 97.3164 39.9688 97.2617 40.0781C97.2253 40.1875 97.1797 40.2969 97.125 40.4062C97.0339 40.5703 96.888 40.8255 96.6875 41.1719C96.487 41.5 96.2773 41.9375 96.0586 42.4844C95.8398 43.0312 95.6484 43.6784 95.4844 44.4258C95.3203 45.1549 95.2383 45.9935 95.2383 46.9414C95.2383 48.0169 95.4479 48.8372 95.8672 49.4023C96.3047 49.9492 96.9154 50.2227 97.6992 50.2227C98.0273 50.2227 98.401 50.1224 98.8203 49.9219C99.2578 49.7031 99.6771 49.375 100.078 48.9375C100.497 48.5 100.862 47.944 101.172 47.2695C101.482 46.5951 101.682 45.8021 101.773 44.8906L102.184 40.1875C102.22 39.9141 102.339 39.6862 102.539 39.5039C102.74 39.3216 102.977 39.2305 103.25 39.2305C103.56 39.2305 103.806 39.349 103.988 39.5859C104.171 39.8047 104.262 40.0599 104.262 40.3516L103.906 44.8906C103.87 45.2734 103.879 45.7747 103.934 46.3945C104.007 47.0143 104.143 47.625 104.344 48.2266C104.544 48.8281 104.845 49.3477 105.246 49.7852C105.647 50.2044 106.176 50.4141 106.832 50.4141C107.306 50.4141 107.771 50.2956 108.227 50.0586C108.682 49.8034 109.12 49.4753 109.539 49.0742C109.958 48.6732 110.341 48.2266 110.688 47.7344C111.052 47.224 111.38 46.7135 111.672 46.2031C111.982 45.6927 112.246 45.2096 112.465 44.7539C112.684 44.2799 112.866 43.8789 113.012 43.5508C113.103 43.3503 113.23 43.1953 113.395 43.0859C113.559 42.9766 113.741 42.9219 113.941 42.9219C114.27 42.9219 114.525 43.0312 114.707 43.25C114.889 43.4688 114.98 43.7057 114.98 43.9609C114.98 44.1068 114.953 44.2435 114.898 44.3711C114.826 44.5169 114.68 44.8268 114.461 45.3008C114.26 45.7565 113.987 46.2852 113.641 46.8867C113.312 47.4701 112.911 48.0898 112.438 48.7461C111.964 49.4023 111.435 50.013 110.852 50.5781C110.268 51.125 109.63 51.5807 108.938 51.9453C108.263 52.2917 107.534 52.4648 106.75 52.4648C105.674 52.4648 104.781 52.1641 104.07 51.5625C103.359 50.9427 102.831 50.0677 102.484 48.9375ZM115.91 40.7617C115.837 41.2539 115.746 41.7188 115.637 42.1562C115.527 42.5755 115.418 42.9492 115.309 43.2773C115.217 43.5872 115.135 43.8424 115.062 44.043C114.99 44.2435 114.944 44.3529 114.926 44.3711C114.743 44.7904 114.424 45 113.969 45C113.714 45 113.477 44.9089 113.258 44.7266C113.039 44.526 112.93 44.2799 112.93 43.9883C112.93 43.8789 112.948 43.7969 112.984 43.7422C113.021 43.6875 113.076 43.5781 113.148 43.4141C113.221 43.25 113.312 42.9766 113.422 42.5938C113.531 42.2109 113.668 41.6185 113.832 40.8164C113.522 40.8164 113.203 40.8073 112.875 40.7891C112.547 40.7708 112.246 40.707 111.973 40.5977C111.681 40.4883 111.444 40.3151 111.262 40.0781C111.079 39.8411 110.988 39.513 110.988 39.0938C110.988 38.7839 111.079 38.3646 111.262 37.8359C111.426 37.3073 111.654 36.7878 111.945 36.2773C112.237 35.7669 112.565 35.3294 112.93 34.9648C113.294 34.582 113.659 34.3906 114.023 34.3906C114.443 34.3906 114.78 34.5456 115.035 34.8555C115.309 35.1654 115.518 35.5482 115.664 36.0039C115.81 36.4414 115.91 36.9062 115.965 37.3984C116.038 37.8906 116.074 38.319 116.074 38.6836C116.384 38.6836 116.685 38.6836 116.977 38.6836C117.286 38.6654 117.578 38.6562 117.852 38.6562C118.891 38.6562 119.684 38.8841 120.23 39.3398C120.777 39.7956 121.051 40.543 121.051 41.582C121.051 42.0013 121.023 42.4388 120.969 42.8945C120.914 43.3503 120.85 43.8242 120.777 44.3164C120.704 44.7904 120.641 45.2643 120.586 45.7383C120.531 46.2122 120.504 46.6771 120.504 47.1328C120.504 47.7891 120.595 48.3359 120.777 48.7734C120.96 49.1927 121.188 49.5299 121.461 49.7852C121.734 50.0404 122.026 50.2227 122.336 50.332C122.646 50.4232 122.928 50.4688 123.184 50.4688C123.967 50.4688 124.706 50.2135 125.398 49.7031C126.091 49.1927 126.729 48.582 127.312 47.8711C127.896 47.1419 128.415 46.3763 128.871 45.5742C129.345 44.7721 129.737 44.0703 130.047 43.4688C130.138 43.3047 130.266 43.1771 130.43 43.0859C130.594 42.9948 130.767 42.9492 130.949 42.9492C131.277 42.9492 131.533 43.0586 131.715 43.2773C131.897 43.4779 131.988 43.7057 131.988 43.9609C131.988 44.1432 131.952 44.3073 131.879 44.4531C131.46 45.2005 130.967 46.0482 130.402 46.9961C129.855 47.9258 129.227 48.8008 128.516 49.6211C127.805 50.4414 127.003 51.1341 126.109 51.6992C125.234 52.2643 124.268 52.5469 123.211 52.5469C122.555 52.5469 121.935 52.4193 121.352 52.1641C120.768 51.9271 120.258 51.5807 119.82 51.125C119.401 50.651 119.064 50.0768 118.809 49.4023C118.553 48.7096 118.426 47.9349 118.426 47.0781C118.426 46.1667 118.517 45.2643 118.699 44.3711C118.882 43.4596 118.973 42.5938 118.973 41.7734C118.973 41.4271 118.891 41.1719 118.727 41.0078C118.581 40.8255 118.243 40.7344 117.715 40.7344C117.46 40.7344 117.177 40.7344 116.867 40.7344C116.576 40.7344 116.257 40.7435 115.91 40.7617ZM114.078 38.7383C114.078 38.6107 114.069 38.4466 114.051 38.2461C114.051 38.0273 114.033 37.8177 113.996 37.6172C113.978 37.4167 113.941 37.2435 113.887 37.0977C113.85 36.9518 113.805 36.8789 113.75 36.8789C113.695 36.8789 113.622 36.9518 113.531 37.0977C113.458 37.2253 113.376 37.3893 113.285 37.5898C113.194 37.7721 113.112 37.9727 113.039 38.1914C112.966 38.4102 112.911 38.5924 112.875 38.7383H114.078ZM140.219 52.3828C140.857 51.7448 141.504 51.0977 142.16 50.4414C142.816 49.7669 143.454 49.0651 144.074 48.3359C144.694 47.6068 145.268 46.8503 145.797 46.0664C146.344 45.2643 146.827 44.4167 147.246 43.5234C147.337 43.3229 147.465 43.1771 147.629 43.0859C147.793 42.9766 147.975 42.9219 148.176 42.9219C148.486 42.9219 148.732 43.0312 148.914 43.25C149.115 43.4688 149.215 43.7148 149.215 43.9883C149.215 44.1341 149.188 44.2708 149.133 44.3984C148.568 45.5833 147.921 46.668 147.191 47.6523C146.462 48.6367 145.697 49.5755 144.895 50.4688C144.092 51.3438 143.281 52.1914 142.461 53.0117C141.641 53.8503 140.857 54.6888 140.109 55.5273C140.036 56.7852 140.036 58.043 140.109 59.3008C140.182 60.5768 140.219 61.9258 140.219 63.3477C140.219 64.5143 140.182 65.681 140.109 66.8477C140.036 68.0143 139.918 69.1263 139.754 70.1836C139.59 71.2591 139.362 72.2617 139.07 73.1914C138.797 74.1211 138.441 74.9232 138.004 75.5977C137.566 76.2904 137.056 76.8281 136.473 77.2109C135.889 77.612 135.206 77.8125 134.422 77.8125C133.128 77.8125 132.134 77.3659 131.441 76.4727C130.749 75.5794 130.402 74.3307 130.402 72.7266C130.402 71.8516 130.493 70.9128 130.676 69.9102C130.876 68.9076 131.15 67.8685 131.496 66.793C131.842 65.7357 132.253 64.6602 132.727 63.5664C133.219 62.4727 133.747 61.4062 134.312 60.3672C134.878 59.3281 135.479 58.3346 136.117 57.3867C136.755 56.457 137.402 55.6094 138.059 54.8438C138.095 53.9688 138.132 53.0573 138.168 52.1094C138.223 51.1797 138.277 50.3138 138.332 49.5117C137.858 50.3503 137.266 51.0247 136.555 51.5352C135.862 52.0456 135.096 52.3008 134.258 52.3008C132.872 52.3008 131.788 51.8359 131.004 50.9062C130.22 49.9766 129.828 48.7005 129.828 47.0781C129.828 45.8932 129.938 44.8177 130.156 43.8516C130.393 42.8672 130.639 42.0286 130.895 41.3359C131.168 40.625 131.414 40.0872 131.633 39.7227C131.852 39.3398 131.961 39.1576 131.961 39.1758C132.161 38.8659 132.444 38.7109 132.809 38.7109C133.118 38.7109 133.365 38.8203 133.547 39.0391C133.747 39.2396 133.848 39.4766 133.848 39.75C133.848 39.9505 133.793 40.1328 133.684 40.2969C133.702 40.2786 133.611 40.4336 133.41 40.7617C133.228 41.0716 133.018 41.5273 132.781 42.1289C132.562 42.7305 132.353 43.4505 132.152 44.2891C131.97 45.1276 131.879 46.0482 131.879 47.0508C131.879 48.0534 132.061 48.8372 132.426 49.4023C132.79 49.9674 133.383 50.25 134.203 50.25C135.242 50.25 136.181 49.4844 137.02 47.9531C137.858 46.4036 138.569 44.1615 139.152 41.2266C139.189 40.9896 139.298 40.7982 139.48 40.6523C139.663 40.4883 139.882 40.4062 140.137 40.4062C140.428 40.4062 140.674 40.5065 140.875 40.707C141.076 40.9076 141.176 41.1536 141.176 41.4453C141.176 41.5 141.139 41.8281 141.066 42.4297C140.993 43.013 140.902 43.7969 140.793 44.7812C140.702 45.7656 140.602 46.9141 140.492 48.2266C140.383 49.5208 140.292 50.9062 140.219 52.3828ZM138.031 58.1797C137.211 59.3646 136.454 60.6133 135.762 61.9258C135.087 63.2383 134.504 64.5417 134.012 65.8359C133.52 67.1302 133.137 68.3698 132.863 69.5547C132.59 70.7396 132.453 71.7969 132.453 72.7266C132.453 73.6745 132.608 74.4128 132.918 74.9414C133.228 75.4883 133.72 75.7617 134.395 75.7617C134.996 75.7617 135.525 75.4609 135.98 74.8594C136.454 74.276 136.846 73.4375 137.156 72.3438C137.484 71.25 137.73 69.9193 137.895 68.3516C138.059 66.8021 138.141 65.0612 138.141 63.1289C138.141 62.3451 138.122 61.5521 138.086 60.75C138.068 59.9479 138.049 59.0911 138.031 58.1797Z" fill="#B98D2B"/>
<path d="M8.22127 79.271C7.48579 79.271 6.85353 79.1935 6.3245 79.0387C5.80837 78.8839 5.38256 78.729 5.04708 78.5742C4.7245 78.4194 4.45998 78.3419 4.25353 78.3419C4.09869 78.3419 3.96966 78.4129 3.86643 78.5548C3.77611 78.6968 3.70514 78.9032 3.65353 79.1742H2.87933C2.90514 78.8903 2.9245 78.5484 2.9374 78.1484C2.9503 77.7355 2.95675 77.2129 2.95675 76.5806C2.96966 75.9355 2.97611 75.1355 2.97611 74.1806H3.7503C3.84062 75.5097 4.25998 76.5677 5.00837 77.3548C5.75675 78.129 6.73095 78.5161 7.93095 78.5161C8.80837 78.5161 9.51159 78.2903 10.0406 77.8387C10.5697 77.3742 10.8342 76.7548 10.8342 75.9806C10.8342 75.5032 10.718 75.0774 10.4858 74.7032C10.2664 74.329 9.90514 73.9871 9.40192 73.6774C8.91159 73.3677 8.25998 73.0645 7.44708 72.7677C6.44062 72.4065 5.62127 72.0194 4.98901 71.6065C4.36966 71.1935 3.91159 70.7355 3.61482 70.2323C3.33095 69.7161 3.18901 69.1419 3.18901 68.5097C3.18901 67.8 3.3503 67.1871 3.67288 66.671C3.99546 66.1419 4.45353 65.7355 5.04708 65.4516C5.64062 65.1677 6.3374 65.0258 7.1374 65.0258C7.82127 65.0258 8.38256 65.1032 8.82127 65.2581C9.27288 65.4 9.64062 65.5484 9.9245 65.7032C10.2213 65.8581 10.4793 65.9355 10.6987 65.9355C10.8535 65.9355 10.9826 65.871 11.0858 65.7419C11.189 65.6 11.26 65.3935 11.2987 65.1226H12.0922C12.0664 65.4065 12.0406 65.7226 12.0148 66.071C12.0019 66.4194 11.989 66.8581 11.9761 67.3871C11.9761 67.9161 11.9761 68.5871 11.9761 69.4H11.2019C11.0987 68.3032 10.7051 67.4258 10.0213 66.7677C9.3503 66.1097 8.49224 65.7806 7.44708 65.7806C6.62127 65.7806 5.98256 65.9806 5.53095 66.3806C5.07933 66.7806 4.85353 67.3226 4.85353 68.0065C4.85353 68.471 4.96966 68.8839 5.20192 69.2452C5.44708 69.6065 5.83417 69.9484 6.36321 70.271C6.90514 70.5806 7.62127 70.9032 8.51159 71.2387C9.99546 71.7806 11.06 72.3871 11.7051 73.0581C12.3503 73.7161 12.6729 74.5355 12.6729 75.5161C12.6729 76.6645 12.2729 77.5806 11.4729 78.2645C10.6729 78.9355 9.58901 79.271 8.22127 79.271ZM19.5113 79.271C18.5307 79.271 17.7759 78.9548 17.2468 78.3226C16.7178 77.6774 16.4533 76.7613 16.4533 75.5742V71.4903C16.4533 70.8839 16.2855 70.4581 15.9501 70.2129C15.6146 69.9548 15.0404 69.8129 14.2275 69.7871V69.0323C14.4339 69.0452 14.6791 69.0581 14.963 69.071C15.2468 69.0839 15.5307 69.0903 15.8146 69.0903C16.2404 69.0903 16.6468 69.071 17.0339 69.0323C17.421 68.9806 17.8081 68.9097 18.1952 68.8194V75.7484C18.1952 76.5871 18.3565 77.2194 18.6791 77.6452C19.0017 78.071 19.4855 78.2839 20.1307 78.2839C20.6468 78.2839 21.1307 78.1355 21.5823 77.8387C22.0339 77.5419 22.4275 77.0968 22.763 76.5032L22.7242 77.3548C22.4404 77.9613 22.0081 78.4323 21.4275 78.7677C20.8597 79.1032 20.221 79.271 19.5113 79.271ZM22.6468 79.2129V71.4903C22.6468 70.8839 22.5049 70.4581 22.221 70.2129C21.9501 69.9548 21.4662 69.8129 20.7694 69.7871V69.0323C20.9759 69.0452 21.2017 69.0581 21.4468 69.071C21.7049 69.0839 21.963 69.0903 22.221 69.0903C22.6081 69.0903 22.9823 69.071 23.3436 69.0323C23.7049 68.9806 24.0533 68.9097 24.3888 68.8194V76.5419C24.3888 77.1613 24.5565 77.6 24.892 77.8581C25.2275 78.1032 25.8017 78.2323 26.6146 78.2452V79C26.3952 78.9742 26.1436 78.9613 25.8597 78.9613C25.5759 78.9484 25.2984 78.9419 25.0275 78.9419C24.6146 78.9419 24.2081 78.9613 23.8081 79C23.421 79.0516 23.0339 79.1226 22.6468 79.2129ZM27.923 79V78.2452C28.7617 78.2323 29.3423 78.129 29.6649 77.9355C29.9875 77.729 30.1488 77.3677 30.1488 76.8516V71.4903C30.1488 70.8839 29.981 70.4581 29.6456 70.2129C29.3101 69.9548 28.7359 69.8129 27.923 69.7871V69.0323C28.181 69.0452 28.4456 69.0581 28.7165 69.071C28.9875 69.0839 29.2714 69.0903 29.5681 69.0903C30.394 69.0903 31.1681 69 31.8907 68.8194V76.7548C31.8907 77.2968 32.0907 77.6774 32.4907 77.8968C32.9036 78.1161 33.6133 78.2323 34.6198 78.2452V79C34.3875 78.9871 34.0714 78.9806 33.6714 78.9806C33.2843 78.9677 32.8585 78.9548 32.394 78.9419C31.9423 78.929 31.4907 78.9226 31.0391 78.9226C30.4198 78.9226 29.8198 78.9355 29.2391 78.9613C28.6585 78.9742 28.2198 78.9871 27.923 79ZM35.6069 72.0903C35.3488 72.0903 35.1294 72.0129 34.9488 71.8581C34.781 71.7032 34.6972 71.5097 34.6972 71.2774C34.6972 71.0968 34.7294 70.9419 34.794 70.8129C34.8714 70.6839 34.9423 70.5613 35.0069 70.4452C35.0714 70.329 35.1036 70.2129 35.1036 70.0968C35.1036 69.8258 34.9036 69.6903 34.5036 69.6903C34.181 69.6903 33.8391 69.7742 33.4778 69.9419C33.1165 70.1097 32.7875 70.329 32.4907 70.6C32.194 70.871 31.9746 71.1742 31.8327 71.5097L31.7746 70.6968C32.1359 70.0774 32.5875 69.6 33.1294 69.2645C33.6843 68.929 34.2649 68.7613 34.8714 68.7613C35.4778 68.7613 35.9552 68.9355 36.3036 69.2839C36.6649 69.6194 36.8456 70.0645 36.8456 70.6194C36.8456 71.0581 36.7294 71.4129 36.4972 71.6839C36.2778 71.9548 35.981 72.0903 35.6069 72.0903ZM43.3604 79.1935L39.8572 71.0839C39.6766 70.6452 39.4185 70.3226 39.083 70.1161C38.7604 69.9097 38.3346 69.8065 37.8056 69.8065V69.0323C38.283 69.0581 38.7153 69.0774 39.1024 69.0903C39.4895 69.1032 39.9088 69.1097 40.3604 69.1097C40.9282 69.1097 41.4185 69.1032 41.8314 69.0903C42.2443 69.0774 42.612 69.0581 42.9346 69.0323V69.8065C42.2766 69.8194 41.8637 69.9355 41.6959 70.1548C41.5411 70.3742 41.5798 70.7613 41.812 71.3161L44.3282 77.1226L44.0379 77.2194L45.9153 72.4774C46.1475 71.8839 46.2637 71.3935 46.2637 71.0065C46.2637 70.6194 46.1411 70.329 45.8959 70.1355C45.6637 69.929 45.3024 69.8194 44.812 69.8065V69.0323C45.1604 69.0452 45.4508 69.0581 45.683 69.071C45.9282 69.071 46.1669 69.0774 46.3991 69.0903C46.6314 69.0903 46.8895 69.0903 47.1733 69.0903C47.5604 69.0903 47.9346 69.0839 48.2959 69.071C48.6701 69.0581 48.9991 69.0452 49.283 69.0323V69.8065C48.7411 69.8194 48.283 69.9935 47.9088 70.329C47.5475 70.6516 47.2249 71.1742 46.9411 71.8968L44.0766 79.1935H43.3604ZM40.6508 83.7419C40.0314 83.7419 39.5282 83.5806 39.1411 83.2581C38.7669 82.9355 38.5798 82.5161 38.5798 82C38.5798 81.6 38.6959 81.2774 38.9282 81.0323C39.1733 80.7871 39.483 80.6645 39.8572 80.6645C40.154 80.6645 40.3798 80.7355 40.5346 80.8774C40.7024 81.0323 40.7862 81.2323 40.7862 81.4774C40.7862 81.6581 40.754 81.8129 40.6895 81.9419C40.6379 82.0839 40.5798 82.2065 40.5153 82.3097C40.4508 82.4258 40.4185 82.5484 40.4185 82.6774C40.4185 82.8968 40.5604 83.0065 40.8443 83.0065C41.1411 83.0065 41.3991 82.8968 41.6185 82.6774C41.8508 82.471 42.0508 82.1677 42.2185 81.7677L43.4572 78.7484L44.0766 79.1548L42.9927 81.8452C42.812 82.2839 42.6056 82.6452 42.3733 82.929C42.154 83.2129 41.9024 83.4194 41.6185 83.5484C41.3475 83.6774 41.0249 83.7419 40.6508 83.7419ZM53.4869 79.271C52.6095 79.271 51.9128 79.0452 51.3966 78.5935C50.8805 78.129 50.6224 77.5032 50.6224 76.7161C50.6224 76.1226 50.7644 75.6387 51.0482 75.2645C51.345 74.8903 51.7192 74.5935 52.1708 74.3742C52.6353 74.1419 53.1257 73.9548 53.6418 73.8129C54.1579 73.671 54.6418 73.5419 55.0934 73.4258C55.5579 73.2968 55.9321 73.1484 56.216 72.9806C56.5128 72.8129 56.6611 72.5871 56.6611 72.3032V71.3935C56.6611 70.7742 56.474 70.3097 56.0998 70C55.7386 69.6903 55.1966 69.5355 54.474 69.5355C53.945 69.5355 53.4998 69.6065 53.1386 69.7484C52.7773 69.8903 52.5966 70.071 52.5966 70.2903C52.5966 70.4065 52.6353 70.5355 52.7128 70.6774C52.8031 70.8065 52.8869 70.9548 52.9644 71.1226C53.0547 71.2774 53.0998 71.4452 53.0998 71.6258C53.0998 71.871 53.0095 72.071 52.8289 72.2258C52.6611 72.3806 52.4353 72.4581 52.1515 72.4581C51.8031 72.4581 51.5192 72.3484 51.2998 72.129C51.0934 71.8968 50.9902 71.5935 50.9902 71.2194C50.9902 70.7548 51.1708 70.3419 51.5321 69.9806C51.8934 69.6065 52.3773 69.3097 52.9837 69.0903C53.5902 68.871 54.274 68.7613 55.0353 68.7613C55.8224 68.7613 56.4611 68.8839 56.9515 69.129C57.4547 69.3742 57.8224 69.7548 58.0547 70.271C58.2869 70.7871 58.4031 71.4516 58.4031 72.2645V77.3935C58.4031 77.7032 58.4547 77.9355 58.5579 78.0903C58.674 78.2323 58.8418 78.3032 59.0611 78.3032C59.2934 78.3032 59.5192 78.2452 59.7386 78.129C59.9708 78.0129 60.1902 77.8774 60.3966 77.7226L60.7644 78.3419C60.4289 78.6387 60.0805 78.8645 59.7192 79.0194C59.3708 79.1871 58.9579 79.271 58.4805 79.271C57.2676 79.271 56.6611 78.6968 56.6611 77.5484C56.2869 78.1161 55.8289 78.5484 55.2869 78.8452C54.7579 79.129 54.1579 79.271 53.4869 79.271ZM54.145 78.129C54.6353 78.129 55.0934 78.0065 55.5192 77.7613C55.9579 77.5161 56.3386 77.1677 56.6611 76.7161V73.3097C56.5321 73.5161 56.2998 73.6903 55.9644 73.8323C55.6418 73.9613 55.2805 74.0968 54.8805 74.2387C54.4805 74.3677 54.0934 74.5226 53.7192 74.7032C53.3579 74.8839 53.0547 75.1161 52.8095 75.4C52.5644 75.6839 52.4418 76.0581 52.4418 76.5226C52.4418 77.0258 52.5902 77.4194 52.8869 77.7032C53.1966 77.9871 53.616 78.129 54.145 78.129ZM78.0856 79.1355L70.6727 66.7871H70.3243V76.4065C70.3243 76.871 70.3824 77.2323 70.4985 77.4903C70.6146 77.7484 70.8404 77.9355 71.1759 78.0516C71.5243 78.1548 72.0404 78.2194 72.7243 78.2452V79C72.4791 78.9742 72.1114 78.9613 71.6211 78.9613C71.1307 78.9484 70.5953 78.9419 70.0146 78.9419C69.4082 78.9419 68.8598 78.9484 68.3695 78.9613C67.892 78.9613 67.5178 78.9742 67.2469 79V78.2452C67.892 78.2194 68.3824 78.1548 68.7178 78.0516C69.0533 77.9355 69.2727 77.7484 69.3759 77.4903C69.492 77.2323 69.5501 76.871 69.5501 76.4065V67.7161C69.5501 67.2516 69.4985 66.9097 69.3953 66.6903C69.292 66.4581 69.0727 66.2968 68.7372 66.2065C68.4146 66.1161 67.9178 66.0645 67.2469 66.0516V65.2968C67.5307 65.3097 67.9114 65.3226 68.3888 65.3355C68.8662 65.3484 69.4017 65.3548 69.9953 65.3548C70.3953 65.3548 70.763 65.3484 71.0985 65.3355C71.434 65.3226 71.7049 65.3097 71.9114 65.2968L77.9695 75.3032H78.2985V67.8903C78.2985 67.4258 78.2404 67.0645 78.1243 66.8065C78.0082 66.5484 77.7759 66.3613 77.4275 66.2452C77.092 66.129 76.5824 66.0645 75.8985 66.0516V65.2968C76.1695 65.3097 76.5436 65.3226 77.0211 65.3355C77.5114 65.3484 78.0469 65.3548 78.6275 65.3548C79.2211 65.3548 79.7566 65.3484 80.234 65.3355C80.7243 65.3226 81.1114 65.3097 81.3953 65.2968V66.0516C80.7501 66.0645 80.2598 66.129 79.9243 66.2452C79.5888 66.3613 79.363 66.5484 79.2469 66.8065C79.1307 67.0645 79.0727 67.4258 79.0727 67.8903V79.1355H78.0856ZM82.8605 79V78.2452C83.6863 78.2323 84.2605 78.129 84.5831 77.9355C84.9185 77.7419 85.0863 77.3806 85.0863 76.8516V71.4903C85.0863 70.8968 84.925 70.471 84.6024 70.2129C84.2798 69.9548 83.6992 69.8129 82.8605 69.7871V69.0323C83.1185 69.0452 83.3831 69.0581 83.654 69.071C83.9379 69.0839 84.2218 69.0903 84.5056 69.0903C84.9444 69.0903 85.3573 69.071 85.7444 69.0323C86.1444 68.9806 86.5056 68.9097 86.8282 68.8194V76.8516C86.8282 77.3806 86.9895 77.7419 87.3121 77.9355C87.6476 78.129 88.2282 78.2323 89.054 78.2452V79C88.8605 78.9871 88.5895 78.9806 88.2411 78.9806C87.9056 78.9677 87.5379 78.9548 87.1379 78.9419C86.7379 78.929 86.3379 78.9226 85.9379 78.9226C85.3573 78.9226 84.7702 78.9355 84.1766 78.9613C83.596 78.9742 83.1573 78.9871 82.8605 79ZM85.8992 66.7097C85.5508 66.7097 85.2476 66.5871 84.9895 66.3419C84.7444 66.0839 84.6218 65.7806 84.6218 65.4323C84.6218 65.0839 84.7444 64.7871 84.9895 64.5419C85.2476 64.2839 85.5508 64.1548 85.8992 64.1548C86.2476 64.1548 86.5444 64.2839 86.7895 64.5419C87.0347 64.7871 87.1573 65.0839 87.1573 65.4323C87.1573 65.7806 87.0347 66.0839 86.7895 66.3419C86.5444 66.5871 86.2476 66.7097 85.8992 66.7097ZM95.133 79.271C94.1781 79.271 93.462 78.9935 92.9846 78.4387C92.5072 77.871 92.2684 77.0194 92.2684 75.8839V69.8065H89.9265V69.0516H92.2684V66.0903C92.6039 66.0645 92.9136 66.0323 93.1975 65.9935C93.4943 65.9548 93.7652 65.8968 94.0104 65.8194V69.0516H97.4749V69.8065H94.0104V76.4065C94.0104 77.0387 94.133 77.5097 94.3781 77.8194C94.6233 78.1161 95.0039 78.2645 95.5201 78.2645C96.0104 78.2645 96.4104 78.1097 96.7201 77.8C97.0297 77.4903 97.262 77.0387 97.4168 76.4452L98.0168 76.6C97.8233 77.5032 97.4943 78.1742 97.0297 78.6129C96.5652 79.0516 95.933 79.271 95.133 79.271ZM104.181 79.1935L100.678 71.0839C100.497 70.6452 100.239 70.3226 99.9033 70.1161C99.5807 69.9097 99.1549 69.8065 98.6259 69.8065V69.0323C99.1033 69.0581 99.5356 69.0774 99.9227 69.0903C100.31 69.1032 100.729 69.1097 101.181 69.1097C101.748 69.1097 102.239 69.1032 102.652 69.0903C103.065 69.0774 103.432 69.0581 103.755 69.0323V69.8065C103.097 69.8194 102.684 69.9355 102.516 70.1548C102.361 70.3742 102.4 70.7613 102.632 71.3161L105.148 77.1226L104.858 77.2194L106.736 72.4774C106.968 71.8839 107.084 71.3935 107.084 71.0065C107.084 70.6194 106.961 70.329 106.716 70.1355C106.484 69.929 106.123 69.8194 105.632 69.8065V69.0323C105.981 69.0452 106.271 69.0581 106.503 69.071C106.748 69.071 106.987 69.0774 107.219 69.0903C107.452 69.0903 107.71 69.0903 107.994 69.0903C108.381 69.0903 108.755 69.0839 109.116 69.071C109.49 69.0581 109.819 69.0452 110.103 69.0323V69.8065C109.561 69.8194 109.103 69.9935 108.729 70.329C108.368 70.6516 108.045 71.1742 107.761 71.8968L104.897 79.1935H104.181ZM101.471 83.7419C100.852 83.7419 100.348 83.5806 99.9614 83.2581C99.5872 82.9355 99.4001 82.5161 99.4001 82C99.4001 81.6 99.5162 81.2774 99.7485 81.0323C99.9936 80.7871 100.303 80.6645 100.678 80.6645C100.974 80.6645 101.2 80.7355 101.355 80.8774C101.523 81.0323 101.607 81.2323 101.607 81.4774C101.607 81.6581 101.574 81.8129 101.51 81.9419C101.458 82.0839 101.4 82.2065 101.336 82.3097C101.271 82.4258 101.239 82.5484 101.239 82.6774C101.239 82.8968 101.381 83.0065 101.665 83.0065C101.961 83.0065 102.219 82.8968 102.439 82.6774C102.671 82.471 102.871 82.1677 103.039 81.7677L104.278 78.7484L104.897 79.1548L103.813 81.8452C103.632 82.2839 103.426 82.6452 103.194 82.929C102.974 83.2129 102.723 83.4194 102.439 83.5484C102.168 83.6774 101.845 83.7419 101.471 83.7419ZM114.307 79.271C113.43 79.271 112.733 79.0452 112.217 78.5935C111.701 78.129 111.443 77.5032 111.443 76.7161C111.443 76.1226 111.585 75.6387 111.869 75.2645C112.165 74.8903 112.54 74.5935 112.991 74.3742C113.456 74.1419 113.946 73.9548 114.462 73.8129C114.978 73.671 115.462 73.5419 115.914 73.4258C116.378 73.2968 116.752 73.1484 117.036 72.9806C117.333 72.8129 117.481 72.5871 117.481 72.3032V71.3935C117.481 70.7742 117.294 70.3097 116.92 70C116.559 69.6903 116.017 69.5355 115.294 69.5355C114.765 69.5355 114.32 69.6065 113.959 69.7484C113.598 69.8903 113.417 70.071 113.417 70.2903C113.417 70.4065 113.456 70.5355 113.533 70.6774C113.623 70.8065 113.707 70.9548 113.785 71.1226C113.875 71.2774 113.92 71.4452 113.92 71.6258C113.92 71.871 113.83 72.071 113.649 72.2258C113.481 72.3806 113.256 72.4581 112.972 72.4581C112.623 72.4581 112.34 72.3484 112.12 72.129C111.914 71.8968 111.81 71.5935 111.81 71.2194C111.81 70.7548 111.991 70.3419 112.352 69.9806C112.714 69.6065 113.198 69.3097 113.804 69.0903C114.41 68.871 115.094 68.7613 115.856 68.7613C116.643 68.7613 117.281 68.8839 117.772 69.129C118.275 69.3742 118.643 69.7548 118.875 70.271C119.107 70.7871 119.223 71.4516 119.223 72.2645V77.3935C119.223 77.7032 119.275 77.9355 119.378 78.0903C119.494 78.2323 119.662 78.3032 119.881 78.3032C120.114 78.3032 120.34 78.2452 120.559 78.129C120.791 78.0129 121.01 77.8774 121.217 77.7226L121.585 78.3419C121.249 78.6387 120.901 78.8645 120.54 79.0194C120.191 79.1871 119.778 79.271 119.301 79.271C118.088 79.271 117.481 78.6968 117.481 77.5484C117.107 78.1161 116.649 78.5484 116.107 78.8452C115.578 79.129 114.978 79.271 114.307 79.271ZM114.965 78.129C115.456 78.129 115.914 78.0065 116.34 77.7613C116.778 77.5161 117.159 77.1677 117.481 76.7161V73.3097C117.352 73.5161 117.12 73.6903 116.785 73.8323C116.462 73.9613 116.101 74.0968 115.701 74.2387C115.301 74.3677 114.914 74.5226 114.54 74.7032C114.178 74.8839 113.875 75.1161 113.63 75.4C113.385 75.6839 113.262 76.0581 113.262 76.5226C113.262 77.0258 113.41 77.4194 113.707 77.7032C114.017 77.9871 114.436 78.129 114.965 78.129Z" fill="#F6F6F6"/>
<path d="M153.148 78.207C153.148 78.6263 153.003 78.9727 152.711 79.2461C152.438 79.5378 152.091 79.6836 151.672 79.6836C151.253 79.6836 150.897 79.5378 150.605 79.2461C150.332 78.9727 150.195 78.6263 150.195 78.207C150.195 77.806 150.332 77.4688 150.605 77.1953C150.897 76.9036 151.253 76.7578 151.672 76.7578C152.091 76.7578 152.438 76.9036 152.711 77.1953C153.003 77.4688 153.148 77.806 153.148 78.207Z" fill="#F6F6F6"/>
</svg>
