<svg width="64" height="64" viewBox="0 0 64 64" fill="none" xmlns="http://www.w3.org/2000/svg">
<path d="M32.0001 5.33325V47.9999M32.0001 47.9999V58.6666M32.0001 47.9999L40.0001 55.9999M32.0001 47.9999L24.0001 55.9999M40.0001 7.99992L32.0001 15.9999L24.0001 7.99992M8.90673 18.6666L18.1441 23.9999M18.1441 23.9999L45.8561 39.9999M18.1441 23.9999L15.2161 13.0719M18.1441 23.9999L7.21606 26.9279M45.8561 39.9999L55.0934 45.3332M45.8561 39.9999L56.7841 37.0719M45.8561 39.9999L48.7841 50.9306M55.0934 18.6666L45.8561 23.9999M45.8561 23.9999L18.1441 39.9999M45.8561 23.9999L48.7841 13.0719M45.8561 23.9999L56.7841 26.9279M18.1441 39.9999L8.90673 45.3332M18.1441 39.9999L7.21606 37.0719M18.1441 39.9999L15.2161 50.9333" stroke="#B98D2B" stroke-width="4" stroke-linecap="round"/>
</svg>
