<svg width="64" height="64" viewBox="0 0 64 64" fill="none" xmlns="http://www.w3.org/2000/svg">
<path d="M48.0133 53.3333H16.0133V58.6667H10.68V53.3333H8.01335C7.3061 53.3333 6.62783 53.0524 6.12773 52.5523C5.62763 52.0522 5.34668 51.3739 5.34668 50.6667V10.6667C5.34668 9.95942 5.62763 9.28115 6.12773 8.78105C6.62783 8.28095 7.3061 8 8.01335 8H56.0133C56.7206 8 57.3989 8.28095 57.899 8.78105C58.3991 9.28115 58.68 9.95942 58.68 10.6667V50.6667C58.68 51.3739 58.3991 52.0522 57.899 52.5523C57.3989 53.0524 56.7206 53.3333 56.0133 53.3333H53.3467V58.6667H48.0133V53.3333ZM29.3467 36.9973V45.3333H34.68V36.9973C37.188 36.3421 39.3717 34.7964 40.8235 32.6489C42.2752 30.5014 42.8958 27.8989 42.5692 25.3274C42.2426 22.7559 40.9912 20.3912 39.0488 18.6747C37.1063 16.9583 34.6055 16.0076 32.0133 16C29.4153 15.9974 26.9056 16.9432 24.9554 18.6597C23.0052 20.3762 21.7485 22.7454 21.4211 25.3228C21.0938 27.9001 21.7184 30.5083 23.1776 32.6578C24.6369 34.8074 26.8305 36.3504 29.3467 36.9973ZM32.0133 32C30.5989 32 29.2423 31.4381 28.2421 30.4379C27.2419 29.4377 26.68 28.0812 26.68 26.6667C26.68 25.2522 27.2419 23.8956 28.2421 22.8954C29.2423 21.8952 30.5989 21.3333 32.0133 21.3333C33.4278 21.3333 34.7844 21.8952 35.7846 22.8954C36.7848 23.8956 37.3467 25.2522 37.3467 26.6667C37.3467 28.0812 36.7848 29.4377 35.7846 30.4379C34.7844 31.4381 33.4278 32 32.0133 32Z" fill="#B98D2B"/>
</svg>
