<svg width="64" height="64" viewBox="0 0 64 64" fill="none" xmlns="http://www.w3.org/2000/svg">
<path d="M15.2 22.3333C17.4667 21.1333 19.8116 20.2221 22.2347 19.5999C24.6578 18.9777 27.1351 18.6666 29.6667 18.6666C31 18.6666 32.3227 18.7555 33.6347 18.9333C34.9467 19.111 36.2462 19.3777 37.5333 19.7333C39.7556 20.3555 41.456 20.7777 42.6347 20.9999C43.8133 21.2221 45.0684 21.3333 46.4 21.3333H48.8667L50 10.6666H14L15.2 22.3333ZM18.6 58.6666C17.2222 58.6666 16.0338 58.2221 15.0347 57.3332C14.0356 56.4444 13.4684 55.311 13.3333 53.9333L8 5.33325H56L50.6667 53.9333C50.5333 55.311 49.9662 56.4444 48.9653 57.3332C47.9644 58.2221 46.776 58.6666 45.4 58.6666H18.6Z" fill="#B98D2B"/>
</svg>
