<svg width="64" height="64" viewBox="0 0 64 64" fill="none" xmlns="http://www.w3.org/2000/svg">
<path d="M32.0002 29.3333C31.2929 29.3333 30.6146 29.6142 30.1145 30.1143C29.6144 30.6144 29.3335 31.2927 29.3335 31.9999C29.3335 32.7072 29.6144 33.3854 30.1145 33.8855C30.6146 34.3856 31.2929 34.6666 32.0002 34.6666C32.7074 34.6666 33.3857 34.3856 33.8858 33.8855C34.3859 33.3854 34.6668 32.7072 34.6668 31.9999C34.6668 31.2927 34.3859 30.6144 33.8858 30.1143C33.3857 29.6142 32.7074 29.3333 32.0002 29.3333ZM33.3335 5.33325C45.3335 5.33325 45.6268 14.8533 39.3335 17.9999C36.6935 19.3066 35.5202 22.1066 35.0135 24.5866C36.2935 25.1199 37.4135 25.9466 38.2668 27.0133C48.1335 21.6799 58.7468 23.7866 58.7468 33.3333C58.7468 45.3332 49.2268 45.5999 46.0802 39.2799C44.7468 36.6399 41.9202 35.4666 39.4402 34.9599C38.9068 36.2399 38.0802 37.3333 37.0135 38.2399C42.3202 48.0799 40.2135 58.6666 30.6668 58.6666C18.6668 58.6666 18.4268 49.1199 24.7202 45.9732C27.3335 44.6666 28.5068 41.8932 29.0402 39.4399C27.7335 38.9066 26.5868 38.0532 25.7335 36.9866C15.8935 42.2666 5.3335 40.1866 5.3335 30.6666C5.3335 18.6666 14.8268 18.3733 17.9735 24.6933C19.3068 27.3333 22.1068 28.4799 24.5868 28.9866C25.0935 27.7066 25.9468 26.5866 27.0402 25.7332C21.7335 15.8933 23.8402 5.33325 33.3335 5.33325Z" fill="#B98D2B"/>
</svg>
