<svg width="64" height="64" viewBox="0 0 64 64" fill="none" xmlns="http://www.w3.org/2000/svg">
<g clip-path="url(#clip0_748_182)">
<path d="M63.0937 33.5938C63.6978 34.9271 63.9999 36.3125 63.9999 37.75V40C63.9999 40.7917 63.8958 41.5521 63.6874 42.2812C63.4791 43.0104 63.1666 43.6875 62.7499 44.3125C62.3333 44.9375 61.8333 45.5 61.2499 46C60.6666 46.5 60.0208 46.9167 59.3124 47.25C58.9999 47.9792 58.5937 48.6354 58.0937 49.2188C57.5937 49.8021 57.0208 50.2917 56.3749 50.6875C55.7291 51.0833 55.0416 51.4062 54.3124 51.6562C53.5833 51.9062 52.8124 52.0208 51.9999 52C50.5624 52 49.2291 51.6458 47.9999 50.9375C46.7708 50.2292 45.7916 49.25 45.0624 48H22.9374C22.2083 49.25 21.2291 50.2292 19.9999 50.9375C18.7708 51.6458 17.4374 52 15.9999 52C14.5624 52 13.2291 51.6458 11.9999 50.9375C10.7708 50.2292 9.79159 49.25 9.06242 48H3.99992C3.43742 48 2.91659 47.8958 2.43742 47.6875C1.95825 47.4792 1.54159 47.1979 1.18742 46.8438C0.833252 46.4896 0.541585 46.0625 0.312419 45.5625C0.0832519 45.0625 -0.0209147 44.5417 -8.13799e-05 44V36C-8.13799e-05 34.3542 0.312419 32.8021 0.937419 31.3438C1.56242 29.8854 2.41659 28.6146 3.49992 27.5312C4.58325 26.4479 5.85408 25.5833 7.31242 24.9375C8.77075 24.2917 10.3333 23.9792 11.9999 24H13.1562L23.4062 13.75C23.9687 13.1875 24.6145 12.7604 25.3437 12.4688C26.0728 12.1771 26.8437 12.0208 27.6562 12H55.9999V16H55.0937L63.0937 33.5938ZM15.9999 48C16.5624 48 17.0833 47.8958 17.5624 47.6875C18.0416 47.4792 18.4583 47.1979 18.8124 46.8438C19.1666 46.4896 19.4583 46.0625 19.6874 45.5625C19.9166 45.0625 20.0208 44.5417 19.9999 44C19.9999 43.4375 19.8958 42.9167 19.6874 42.4375C19.4791 41.9583 19.1978 41.5417 18.8437 41.1875C18.4895 40.8333 18.0624 40.5417 17.5624 40.3125C17.0624 40.0833 16.5416 39.9792 15.9999 40C15.4374 40 14.9166 40.1042 14.4374 40.3125C13.9583 40.5208 13.5416 40.8021 13.1874 41.1562C12.8333 41.5104 12.5416 41.9375 12.3124 42.4375C12.0833 42.9375 11.9791 43.4583 11.9999 44C11.9999 44.5625 12.1041 45.0833 12.3124 45.5625C12.5208 46.0417 12.802 46.4583 13.1562 46.8125C13.5103 47.1667 13.9374 47.4583 14.4374 47.6875C14.9374 47.9167 15.4583 48.0208 15.9999 48ZM35.9999 16H27.6562C27.1145 16 26.6458 16.1979 26.2499 16.5938L18.8437 24H35.9999V16ZM39.9999 24H54.3437L51.2499 17.1562C51.0833 16.8021 50.8333 16.5208 50.4999 16.3125C50.1666 16.1042 49.802 16 49.4062 16H39.9999V24ZM51.9999 48C52.5624 48 53.0833 47.8958 53.5624 47.6875C54.0416 47.4792 54.4583 47.1979 54.8124 46.8438C55.1666 46.4896 55.4583 46.0625 55.6874 45.5625C55.9166 45.0625 56.0208 44.5417 55.9999 44C55.9999 43.4375 55.8958 42.9167 55.6874 42.4375C55.4791 41.9583 55.1978 41.5417 54.8437 41.1875C54.4895 40.8333 54.0624 40.5417 53.5624 40.3125C53.0624 40.0833 52.5416 39.9792 51.9999 40C51.4374 40 50.9166 40.1042 50.4374 40.3125C49.9583 40.5208 49.5416 40.8021 49.1874 41.1562C48.8333 41.5104 48.5416 41.9375 48.3124 42.4375C48.0833 42.9375 47.9791 43.4583 47.9999 44C47.9999 44.5625 48.1041 45.0833 48.3124 45.5625C48.5208 46.0417 48.802 46.4583 49.1562 46.8125C49.5103 47.1667 49.9374 47.4583 50.4374 47.6875C50.9374 47.9167 51.4583 48.0208 51.9999 48Z" fill="#B98D2B"/>
</g>
<defs>
<clipPath id="clip0_748_182">
<rect width="64" height="64" fill="white"/>
</clipPath>
</defs>
</svg>
