<svg width="64" height="64" viewBox="0 0 64 64" fill="none" xmlns="http://www.w3.org/2000/svg">
<path d="M53.3335 16.0002H45.3335V10.6668C45.3335 9.25234 44.7716 7.89579 43.7714 6.89559C42.7712 5.8954 41.4146 5.3335 40.0002 5.3335H24.0002C22.5857 5.3335 21.2291 5.8954 20.2289 6.89559C19.2287 7.89579 18.6668 9.25234 18.6668 10.6668V16.0002H10.6668C9.25234 16.0002 7.89579 16.5621 6.89559 17.5623C5.8954 18.5625 5.3335 19.919 5.3335 21.3335V48.0002C5.3335 49.4147 5.8954 50.7712 6.89559 51.7714C7.89579 52.7716 9.25234 53.3335 10.6668 53.3335H53.3335C54.748 53.3335 56.1045 52.7716 57.1047 51.7714C58.1049 50.7712 58.6668 49.4147 58.6668 48.0002V21.3335C58.6668 19.919 58.1049 18.5625 57.1047 17.5623C56.1045 16.5621 54.748 16.0002 53.3335 16.0002ZM24.0002 10.6668H40.0002V16.0002H24.0002V10.6668ZM42.6668 37.3335H34.6668V45.3335H29.3335V37.3335H21.3335V32.0002H29.3335V24.0002H34.6668V32.0002H42.6668V37.3335Z" fill="#B98D2B"/>
</svg>
