<svg width="64" height="64" viewBox="0 0 64 64" fill="none" xmlns="http://www.w3.org/2000/svg">
<path d="M56 12V38C56.0006 38.2742 55.9448 38.5455 55.8361 38.7973C55.7274 39.049 55.5682 39.2756 55.3682 39.4632C55.1682 39.6508 54.9318 39.7952 54.6736 39.8875C54.4155 39.9799 54.1411 40.0182 53.8675 40C53.3532 39.9558 52.8747 39.7186 52.5283 39.3359C52.1818 38.9533 51.993 38.4536 52 37.9375V12C52.0006 11.7254 51.9447 11.4536 51.8357 11.2015C51.7267 10.9494 51.567 10.7225 51.3665 10.5349C51.1659 10.3472 50.9289 10.2029 50.6702 10.1109C50.4114 10.0189 50.1365 9.98112 49.8625 10C49.3482 10.0466 48.8706 10.2858 48.5252 10.6696C48.1798 11.0535 47.9922 11.5537 48 12.07V45C48 45.2652 47.8946 45.5196 47.7071 45.7071C47.5196 45.8946 47.2652 46 47 46H13C12.7348 46 12.4804 45.8946 12.2929 45.7071C12.1054 45.5196 12 45.2652 12 45V12C12 10.4087 12.6321 8.88258 13.7574 7.75736C14.8826 6.63214 16.4087 6 18 6H50C51.5913 6 53.1174 6.63214 54.2426 7.75736C55.3679 8.88258 56 10.4087 56 12ZM47 50H13C12.7348 50 12.4804 50.1054 12.2929 50.2929C12.1054 50.4804 12 50.7348 12 51V54C12 55.0609 12.4214 56.0783 13.1716 56.8284C13.9217 57.5786 14.9391 58 16 58H44C45.0609 58 46.0783 57.5786 46.8284 56.8284C47.5786 56.0783 48 55.0609 48 54V51C48 50.7348 47.8946 50.4804 47.7071 50.2929C47.5196 50.1054 47.2652 50 47 50Z" fill="#B98D2B"/>
</svg>
