<svg width="64" height="64" viewBox="0 0 64 64" fill="none" xmlns="http://www.w3.org/2000/svg">
<path d="M61 48H3C2.73478 48 2.48043 47.8946 2.29289 47.7071C2.10536 47.5196 2 47.2652 2 47V11C2 10.7348 2.10536 10.4804 2.29289 10.2929C2.48043 10.1054 2.73478 10 3 10H61C61.2652 10 61.5196 10.1054 61.7071 10.2929C61.8946 10.4804 62 10.7348 62 11V47C62 47.2652 61.8946 47.5196 61.7071 47.7071C61.5196 47.8946 61.2652 48 61 48Z" fill="#B98D2B"/>
<path d="M49.5 50H14.5C14.2239 50 14 50.2239 14 50.5V53.5C14 53.7761 14.2239 54 14.5 54H49.5C49.7761 54 50 53.7761 50 53.5V50.5C50 50.2239 49.7761 50 49.5 50Z" fill="#B98D2B"/>
</svg>
